<svg width="246" height="197" viewBox="0 0 246 197" fill="none" xmlns="http://www.w3.org/2000/svg">
<circle cx="121.181" cy="107" r="49" fill="url(#paint0_linear_1124_1287)"/>
<g filter="url(#filter0_d_1124_1287)">
<path d="M104.181 110.5L116.231 121L138.181 93" stroke="white" stroke-width="5" stroke-linecap="round" stroke-linejoin="round"/>
</g>
<rect x="126.364" y="29.2646" width="4.90082" height="5.71762" rx="1" transform="rotate(-10.9119 126.364 29.2646)" fill="url(#paint1_linear_1124_1287)"/>
<rect x="203.363" y="151.446" width="4.90082" height="5.71762" rx="1" transform="rotate(29.09 203.363 151.446)" fill="url(#paint2_linear_1124_1287)"/>
<rect x="65.8154" y="189.331" width="4.90082" height="5.71762" rx="1" transform="rotate(29.09 65.8154 189.331)" fill="url(#paint3_linear_1124_1287)"/>
<rect x="93.7148" y="45.3262" width="2.2612" height="2.63806" rx="1" fill="url(#paint4_linear_1124_1287)"/>
<rect x="199.982" y="26.6606" width="4.16433" height="4.85839" rx="1" transform="rotate(27 199.982 26.6606)" fill="url(#paint5_linear_1124_1287)"/>
<rect x="193.545" y="47.9946" width="2.2612" height="2.63806" rx="1" fill="url(#paint6_linear_1124_1287)"/>
<rect x="186.872" y="147.1" width="2.2612" height="2.63806" rx="1" fill="url(#paint7_linear_1124_1287)"/>
<rect x="204.979" y="108.982" width="2.2612" height="2.63806" rx="1" fill="url(#paint8_linear_1124_1287)"/>
<rect x="230.709" y="74.6772" width="2.2612" height="2.63806" rx="1" fill="url(#paint9_linear_1124_1287)"/>
<rect x="209.743" y="135.665" width="2.2612" height="2.63806" rx="1" fill="url(#paint10_linear_1124_1287)"/>
<rect x="163.181" y="186" width="2.2612" height="2.63806" rx="1" fill="url(#paint11_linear_1124_1287)"/>
<rect x="67.6406" y="35.8159" width="3.22878" height="3.76691" rx="1" transform="rotate(-22.65 67.6406 35.8159)" fill="url(#paint12_linear_1124_1287)"/>
<rect x="6.31055" y="170.402" width="3.22878" height="3.76691" rx="1" transform="rotate(17.3473 6.31055 170.402)" fill="url(#paint13_linear_1124_1287)"/>
<rect x="57.7002" y="58.4771" width="1.22278" height="1.42657" rx="0.611389" transform="rotate(17.3473 57.7002 58.4771)" fill="url(#paint14_linear_1124_1287)"/>
<rect x="182.534" y="66.1001" width="1.22278" height="1.42657" rx="0.611389" transform="rotate(17.3473 182.534 66.1001)" fill="url(#paint15_linear_1124_1287)"/>
<rect x="233.039" y="88.0176" width="1.22278" height="1.42657" rx="0.611389" transform="rotate(17.3473 233.039 88.0176)" fill="url(#paint16_linear_1124_1287)"/>
<rect x="67.8154" y="147.449" width="1.22278" height="1.42657" rx="0.611389" transform="rotate(17.3473 67.8154 147.449)" fill="url(#paint17_linear_1124_1287)"/>
<rect x="23.3945" y="13.689" width="1.22278" height="1.42657" rx="0.611389" transform="rotate(17.3473 23.3945 13.689)" fill="url(#paint18_linear_1124_1287)"/>
<rect x="32.3516" y="105.853" width="2.32195" height="2.70894" rx="1" transform="rotate(17.3473 32.3516 105.853)" fill="url(#paint19_linear_1124_1287)"/>
<rect x="35.3477" y="140.317" width="2.32195" height="2.70894" rx="1" transform="rotate(17.3473 35.3477 140.317)" fill="url(#paint20_linear_1124_1287)"/>
<rect x="103.812" y="173.552" width="2.32195" height="2.70894" rx="1" transform="rotate(17.3473 103.812 173.552)" fill="url(#paint21_linear_1124_1287)"/>
<rect x="143.207" y="12.7358" width="3.22878" height="3.76691" rx="1" transform="rotate(17.3473 143.207 12.7358)" fill="url(#paint22_linear_1124_1287)"/>
<rect x="44.4248" y="45.1353" width="4.15966" height="4.85293" rx="1" transform="rotate(17.3473 44.4248 45.1353)" fill="url(#paint23_linear_1124_1287)"/>
<rect x="120.548" y="4.52002" width="4.15966" height="4.85293" rx="1" transform="rotate(-92.65 120.548 4.52002)" fill="url(#paint24_linear_1124_1287)"/>
<rect x="9.82324" y="85.7153" width="6.4143" height="7.48335" rx="1" transform="rotate(135.279 9.82324 85.7153)" fill="url(#paint25_linear_1124_1287)"/>
<rect x="237.378" y="178.84" width="6.4143" height="7.48335" rx="1" transform="rotate(-11.7361 237.378 178.84)" fill="url(#paint26_linear_1124_1287)"/>
<defs>
<filter id="filter0_d_1124_1287" x="98.6807" y="90.5" width="45" height="40" filterUnits="userSpaceOnUse" color-interpolation-filters="sRGB">
<feFlood flood-opacity="0" result="BackgroundImageFix"/>
<feColorMatrix in="SourceAlpha" type="matrix" values="0 0 0 0 0 0 0 0 0 0 0 0 0 0 0 0 0 0 127 0" result="hardAlpha"/>
<feOffset dy="4"/>
<feGaussianBlur stdDeviation="1.5"/>
<feColorMatrix type="matrix" values="0 0 0 0 0 0 0 0 0 0 0 0 0 0 0 0 0 0 0.15 0"/>
<feBlend mode="normal" in2="BackgroundImageFix" result="effect1_dropShadow_1124_1287"/>
<feBlend mode="normal" in="SourceGraphic" in2="effect1_dropShadow_1124_1287" result="shape"/>
</filter>
<linearGradient id="paint0_linear_1124_1287" x1="72.1807" y1="63.0256" x2="179.13" y2="83.8349" gradientUnits="userSpaceOnUse">
<stop stop-color="#4DC6FD"/>
<stop offset="1" stop-color="#00CCCB"/>
</linearGradient>
<linearGradient id="paint1_linear_1124_1287" x1="126.364" y1="29.5579" x2="131.765" y2="30.4585" gradientUnits="userSpaceOnUse">
<stop stop-color="#4DC6FD"/>
<stop offset="1" stop-color="#00CCCB"/>
</linearGradient>
<linearGradient id="paint2_linear_1124_1287" x1="203.363" y1="151.739" x2="208.764" y2="152.64" gradientUnits="userSpaceOnUse">
<stop stop-color="#4DC6FD"/>
<stop offset="1" stop-color="#00CCCB"/>
</linearGradient>
<linearGradient id="paint3_linear_1124_1287" x1="65.8154" y1="189.624" x2="71.2161" y2="190.524" gradientUnits="userSpaceOnUse">
<stop stop-color="#4DC6FD"/>
<stop offset="1" stop-color="#00CCCB"/>
</linearGradient>
<linearGradient id="paint4_linear_1124_1287" x1="93.7148" y1="45.4615" x2="96.2066" y2="45.877" gradientUnits="userSpaceOnUse">
<stop stop-color="#4DC6FD"/>
<stop offset="1" stop-color="#00CCCB"/>
</linearGradient>
<linearGradient id="paint5_linear_1124_1287" x1="199.982" y1="26.9098" x2="204.571" y2="27.6751" gradientUnits="userSpaceOnUse">
<stop stop-color="#4DC6FD"/>
<stop offset="1" stop-color="#00CCCB"/>
</linearGradient>
<linearGradient id="paint6_linear_1124_1287" x1="193.545" y1="48.1299" x2="196.037" y2="48.5455" gradientUnits="userSpaceOnUse">
<stop stop-color="#4DC6FD"/>
<stop offset="1" stop-color="#00CCCB"/>
</linearGradient>
<linearGradient id="paint7_linear_1124_1287" x1="186.872" y1="147.235" x2="189.364" y2="147.65" gradientUnits="userSpaceOnUse">
<stop stop-color="#4DC6FD"/>
<stop offset="1" stop-color="#00CCCB"/>
</linearGradient>
<linearGradient id="paint8_linear_1124_1287" x1="204.979" y1="109.118" x2="207.471" y2="109.533" gradientUnits="userSpaceOnUse">
<stop stop-color="#4DC6FD"/>
<stop offset="1" stop-color="#00CCCB"/>
</linearGradient>
<linearGradient id="paint9_linear_1124_1287" x1="230.709" y1="74.8125" x2="233.201" y2="75.2281" gradientUnits="userSpaceOnUse">
<stop stop-color="#4DC6FD"/>
<stop offset="1" stop-color="#00CCCB"/>
</linearGradient>
<linearGradient id="paint10_linear_1124_1287" x1="209.743" y1="135.8" x2="212.235" y2="136.215" gradientUnits="userSpaceOnUse">
<stop stop-color="#4DC6FD"/>
<stop offset="1" stop-color="#00CCCB"/>
</linearGradient>
<linearGradient id="paint11_linear_1124_1287" x1="163.181" y1="186.135" x2="165.672" y2="186.551" gradientUnits="userSpaceOnUse">
<stop stop-color="#4DC6FD"/>
<stop offset="1" stop-color="#00CCCB"/>
</linearGradient>
<linearGradient id="paint12_linear_1124_1287" x1="67.6406" y1="36.0091" x2="71.1987" y2="36.6025" gradientUnits="userSpaceOnUse">
<stop stop-color="#4DC6FD"/>
<stop offset="1" stop-color="#00CCCB"/>
</linearGradient>
<linearGradient id="paint13_linear_1124_1287" x1="6.31055" y1="170.595" x2="9.86861" y2="171.188" gradientUnits="userSpaceOnUse">
<stop stop-color="#4DC6FD"/>
<stop offset="1" stop-color="#00CCCB"/>
</linearGradient>
<linearGradient id="paint14_linear_1124_1287" x1="57.7002" y1="58.5502" x2="59.0477" y2="58.7749" gradientUnits="userSpaceOnUse">
<stop stop-color="#4DC6FD"/>
<stop offset="1" stop-color="#00CCCB"/>
</linearGradient>
<linearGradient id="paint15_linear_1124_1287" x1="182.534" y1="66.1733" x2="183.882" y2="66.398" gradientUnits="userSpaceOnUse">
<stop stop-color="#4DC6FD"/>
<stop offset="1" stop-color="#00CCCB"/>
</linearGradient>
<linearGradient id="paint16_linear_1124_1287" x1="233.039" y1="88.0907" x2="234.387" y2="88.3155" gradientUnits="userSpaceOnUse">
<stop stop-color="#4DC6FD"/>
<stop offset="1" stop-color="#00CCCB"/>
</linearGradient>
<linearGradient id="paint17_linear_1124_1287" x1="67.8154" y1="147.522" x2="69.1629" y2="147.747" gradientUnits="userSpaceOnUse">
<stop stop-color="#4DC6FD"/>
<stop offset="1" stop-color="#00CCCB"/>
</linearGradient>
<linearGradient id="paint18_linear_1124_1287" x1="23.3945" y1="13.7621" x2="24.742" y2="13.9868" gradientUnits="userSpaceOnUse">
<stop stop-color="#4DC6FD"/>
<stop offset="1" stop-color="#00CCCB"/>
</linearGradient>
<linearGradient id="paint19_linear_1124_1287" x1="32.3516" y1="105.991" x2="34.9103" y2="106.418" gradientUnits="userSpaceOnUse">
<stop stop-color="#4DC6FD"/>
<stop offset="1" stop-color="#00CCCB"/>
</linearGradient>
<linearGradient id="paint20_linear_1124_1287" x1="35.3477" y1="140.456" x2="37.9064" y2="140.883" gradientUnits="userSpaceOnUse">
<stop stop-color="#4DC6FD"/>
<stop offset="1" stop-color="#00CCCB"/>
</linearGradient>
<linearGradient id="paint21_linear_1124_1287" x1="103.812" y1="173.691" x2="106.371" y2="174.117" gradientUnits="userSpaceOnUse">
<stop stop-color="#4DC6FD"/>
<stop offset="1" stop-color="#00CCCB"/>
</linearGradient>
<linearGradient id="paint22_linear_1124_1287" x1="143.207" y1="12.929" x2="146.765" y2="13.5224" gradientUnits="userSpaceOnUse">
<stop stop-color="#4DC6FD"/>
<stop offset="1" stop-color="#00CCCB"/>
</linearGradient>
<linearGradient id="paint23_linear_1124_1287" x1="44.4248" y1="45.3841" x2="49.0087" y2="46.1486" gradientUnits="userSpaceOnUse">
<stop stop-color="#4DC6FD"/>
<stop offset="1" stop-color="#00CCCB"/>
</linearGradient>
<linearGradient id="paint24_linear_1124_1287" x1="120.548" y1="4.76889" x2="125.132" y2="5.53336" gradientUnits="userSpaceOnUse">
<stop stop-color="#4DC6FD"/>
<stop offset="1" stop-color="#00CCCB"/>
</linearGradient>
<linearGradient id="paint25_linear_1124_1287" x1="9.82324" y1="86.0991" x2="16.8917" y2="87.2779" gradientUnits="userSpaceOnUse">
<stop stop-color="#4DC6FD"/>
<stop offset="1" stop-color="#00CCCB"/>
</linearGradient>
<linearGradient id="paint26_linear_1124_1287" x1="237.378" y1="179.224" x2="244.446" y2="180.402" gradientUnits="userSpaceOnUse">
<stop stop-color="#4DC6FD"/>
<stop offset="1" stop-color="#00CCCB"/>
</linearGradient>
</defs>
</svg>
