<svg width="248" height="164" viewBox="0 0 248 164" fill="none" xmlns="http://www.w3.org/2000/svg">
<g clip-path="url(#clip0_1124_1246)">
<path d="M161.856 71.4332C161.57 72.9391 161.228 74.4296 160.828 75.9048C160.785 76.0761 160.736 76.2448 160.688 76.4161H155.128C154.655 76.4166 154.201 76.6053 153.866 76.9408C153.531 77.2763 153.343 77.7312 153.342 78.2057V94.0874C153.174 94.4019 153.003 94.7138 152.832 95.0257C151.949 96.6363 151.03 98.2291 150.091 99.8014C134.781 125.356 113.428 146.741 87.9157 162.068L89.4262 158.652C88.8725 158.614 88.3163 158.575 87.7627 158.537C75.7072 157.711 63.6108 156.796 51.8385 154.081C39.5227 151.241 27.475 146.314 17.8229 138.146C8.16818 129.975 1.09058 118.306 0.108251 105.682C-0.219303 101.343 0.21861 96.9802 1.40191 92.7938C3.66493 84.7353 8.60969 77.4848 15.7435 73.1948C26.9494 66.4581 41.5665 67.831 53.3796 73.4351C65.1901 79.0366 74.804 88.3095 84.1907 97.4212C74.7134 81.1363 61.518 67.3349 45.687 57.1494C40.4413 53.7849 34.8741 50.7886 30.4142 46.4296C25.9568 42.0731 22.668 35.9653 23.4565 29.7758C24.352 22.7553 30.0902 17.4273 35.8385 13.3188C38.1348 11.6775 40.5051 10.1205 42.9494 8.68882C49.8458 4.63914 57.3063 1.58399 65.185 0.451411C75.8577 -1.08511 87.3851 1.24652 95.5675 8.28232C104.786 16.2104 108.567 28.996 108.207 41.2268C113.887 32.9536 122.646 26.6209 132.538 26.3525C142.807 26.0764 152.569 32.5778 157.713 41.4902C162.854 50.4 163.777 61.3218 161.856 71.4332Z" fill="#E6E6E6"/>
<path d="M96.8821 105.793C102.897 105.262 108.453 104.642 114.282 102.989C119.932 101.387 125.368 98.7057 129.39 94.3269C133.716 89.6172 136.051 83.5008 137.699 77.4121C138.617 74.0174 139.372 70.5753 140.084 67.132C140.857 63.3959 141.543 59.6434 142.144 55.8743C143.339 48.3719 144.192 40.8253 144.704 33.2346C144.766 32.3132 144.822 31.3914 144.874 30.4694C144.906 29.9006 144.023 29.9024 143.991 30.4694C143.571 37.9517 142.815 45.4049 141.724 52.8289C140.647 60.1229 139.269 67.3853 137.521 74.5486C136.04 80.6171 134.123 86.7803 130.325 91.832C126.763 96.5692 121.619 99.6649 116.064 101.516C110.412 103.399 104.453 104.151 98.5462 104.71C97.8216 104.779 97.6071 104.844 96.8821 104.908C96.3206 104.958 96.3153 105.843 96.8821 105.793L96.8821 105.793Z" fill="white"/>
<path d="M1.91143 93.4464C9.50032 93.8682 17.012 95.1946 24.2877 97.3974C31.5664 99.5959 38.5611 102.647 45.1268 106.487C51.4709 110.2 57.3604 114.643 62.6755 119.726C67.8339 124.662 72.4313 130.155 76.3837 136.105C80.354 142.069 83.6443 148.461 86.193 155.16C86.5037 155.98 86.8031 156.804 87.091 157.632C87.2771 158.166 88.1302 157.936 87.9423 157.397C85.5579 150.556 82.4145 144.005 78.5713 137.868C74.7288 131.729 70.2192 126.037 65.1251 120.894C59.9495 115.671 54.1893 111.065 47.959 107.167C34.8776 99.0017 20.0498 94.0621 4.69337 92.7538C3.76705 92.676 2.83973 92.612 1.91144 92.5618C1.34375 92.5307 1.34549 93.4154 1.91144 93.4464L1.91143 93.4464Z" fill="white"/>
<path d="M43.1884 9.72568C48.0406 11.272 52.6399 13.5241 56.8389 16.4098C61.1296 19.3785 65.0428 22.8608 68.4918 26.7794C72.1263 30.9016 75.3576 35.3639 78.1412 40.1048C81.0938 45.1105 83.6587 50.3358 85.8134 55.7347C88.0322 61.2776 89.8983 66.9557 91.4006 72.735C92.9277 78.5828 94.1205 84.5131 94.9733 90.4971C95.8217 96.4175 96.3351 102.381 96.5111 108.36C96.6885 114.077 96.5199 119.799 96.0061 125.496C95.5362 130.81 94.6781 136.083 93.4386 141.271C92.3378 145.958 90.7865 150.526 88.8065 154.913C88.3478 155.908 87.8611 156.89 87.3465 157.858C87.0795 158.36 87.8413 158.808 88.1088 158.304C90.2969 154.115 92.0442 149.708 93.3223 145.156C94.7564 140.089 95.7958 134.917 96.4314 129.689C97.1359 124.016 97.4791 118.304 97.4586 112.588C97.446 106.582 97.0892 100.582 96.3901 94.6177C95.6908 88.5787 94.6524 82.584 93.2799 76.6621C91.9108 70.7305 90.1741 64.8901 88.0799 59.175C86.0614 53.6425 83.6447 48.2641 80.8487 43.0824C78.1857 38.1377 75.0824 33.4442 71.5765 29.0591C68.247 24.8838 64.4458 21.1093 60.2491 17.8109C56.2023 14.64 51.7304 12.0553 46.965 10.1328C45.8005 9.66831 44.6198 9.24828 43.4231 8.87267C42.8799 8.70143 42.6475 9.55515 43.1884 9.72568H43.1884Z" fill="white"/>
<path d="M95.5522 163.597C130.428 163.597 158.7 162.452 158.7 161.04C158.7 159.628 130.428 158.483 95.5522 158.483C60.6766 158.483 32.4043 159.628 32.4043 161.04C32.4043 162.452 60.6766 163.597 95.5522 163.597Z" fill="#E6E6E6"/>
<path d="M151.344 80.9644C151.312 81.1023 151.292 81.2425 151.283 81.3837L140.322 87.7195L137.658 86.1827L134.818 89.9083L140.518 93.9786L153.022 84.094C153.532 84.2831 154.087 84.3122 154.614 84.1773C155.141 84.0424 155.614 83.75 155.971 83.339C156.328 82.9279 156.552 82.4177 156.612 81.8762C156.673 81.3347 156.567 80.7876 156.31 80.3076C156.053 79.8276 155.656 79.4374 155.172 79.189C154.688 78.9407 154.14 78.8458 153.6 78.9171C153.061 78.9884 152.557 79.2225 152.154 79.5882C151.75 79.9539 151.468 80.4339 151.344 80.9644Z" fill="#FFB8B8"/>
<path d="M126.383 84.8514L135.013 91.0146L138.872 86.1655L130.483 79.4205C130.122 79.1303 129.706 78.917 129.26 78.7936C128.814 78.6703 128.347 78.6395 127.889 78.7031C127.431 78.7668 126.99 78.9235 126.594 79.1638C126.199 79.404 125.856 79.7227 125.587 80.1003C125.064 80.836 124.854 81.7499 125.003 82.6409C125.152 83.5319 125.648 84.327 126.383 84.8514Z" fill="#4DC6FD"/>
<path d="M108.568 155.175L111.594 155.97L116.093 144.653L111.627 143.48L108.568 155.175Z" fill="#FFB8B8"/>
<path d="M116.693 160.318L107.184 157.821L108.146 154.139L113.982 155.671C114.956 155.927 115.789 156.561 116.298 157.432C116.806 158.303 116.949 159.341 116.693 160.318Z" fill="#2F2E41"/>
<path d="M135.466 157.334L138.546 156.783L137.889 144.62L133.345 145.433L135.466 157.334Z" fill="#FFB8B8"/>
<path d="M144.995 158.585L135.317 160.318L134.65 156.571L140.588 155.508C141.079 155.42 141.583 155.43 142.07 155.537C142.557 155.644 143.018 155.846 143.428 156.132C143.837 156.418 144.186 156.782 144.455 157.203C144.724 157.624 144.907 158.093 144.995 158.585Z" fill="#2F2E41"/>
<path d="M129.404 67.8801C130.162 68.0652 130.78 68.8399 131.15 69.7374C131.492 70.6801 131.724 71.6595 131.84 72.6557C132.132 74.5109 132.411 76.5194 131.809 78.2377C131.103 80.2516 129.221 81.3065 127.589 80.8108C125.957 80.3151 124.659 78.4544 124.215 76.3126C123.812 74.1485 124.072 71.9126 124.962 69.8995C125.425 68.8419 126.064 67.8661 126.913 67.3889C127.33 67.1364 127.827 67.0514 128.303 67.1509C128.78 67.2505 129.201 67.5271 129.482 67.9252" fill="#2F2E41"/>
<path d="M133.697 101.471L139.559 154.085L134.717 155.927L125.787 120.646L113.354 152.905L108.055 153.2C108.055 153.2 115.326 103.005 120.715 101.864L133.697 101.471Z" fill="#2F2E41"/>
<path d="M128.772 74.5948C132.233 74.5948 135.039 71.7834 135.039 68.3154C135.039 64.8475 132.233 62.0361 128.772 62.0361C125.311 62.0361 122.506 64.8475 122.506 68.3154C122.506 71.7834 125.311 74.5948 128.772 74.5948Z" fill="#FFB8B8"/>
<path d="M131.461 77.2293L124.689 76.3442C124.689 76.3442 120.273 81.6548 120.567 90.8007C120.862 99.9467 119.831 102.749 119.831 102.749L133.951 103.005C131.91 100.193 140.447 84.0409 131.461 77.2293Z" fill="#4DC6FD"/>
<path d="M135.099 104.283C134.958 104.284 134.817 104.296 134.678 104.319L126.014 95.078L126.898 92.1276L122.628 90.21L119.979 96.7006L132.443 106.635C132.376 107.176 132.475 107.725 132.726 108.208C132.978 108.691 133.37 109.086 133.851 109.34C134.332 109.594 134.879 109.695 135.419 109.63C135.959 109.566 136.466 109.338 136.874 108.977C137.281 108.616 137.569 108.139 137.7 107.61C137.83 107.081 137.797 106.525 137.605 106.015C137.412 105.506 137.069 105.067 136.622 104.758C136.174 104.448 135.643 104.283 135.099 104.283Z" fill="#FFB8B8"/>
<path d="M125.61 80.8247L121.598 90.6532L127.192 93.3085L131.825 83.5817C132.024 83.1633 132.136 82.7084 132.154 82.2451C132.171 81.7818 132.095 81.3197 131.928 80.8871C131.761 80.4546 131.508 80.0607 131.184 79.7296C130.86 79.3985 130.472 79.1372 130.044 78.9616C129.631 78.7923 129.188 78.7061 128.742 78.708C128.295 78.71 127.854 78.8 127.442 78.973C127.03 79.146 126.657 79.3986 126.342 79.7163C126.028 80.034 125.779 80.4106 125.61 80.8247Z" fill="#4DC6FD"/>
<path d="M127.133 74.0246C128.115 73.457 128.22 72.0878 128.087 70.9598C127.953 69.8319 127.73 68.5744 128.392 67.6521C129.182 66.5513 130.768 66.5294 132.121 66.4935C133.473 66.4576 135.12 66.0607 135.471 64.7513C135.702 63.8861 135.207 62.9577 134.496 62.4145C133.785 61.8714 132.895 61.6313 132.031 61.4031C130.097 60.8926 128.1 60.3779 126.12 60.6584C124.159 60.9363 122.386 61.9768 121.184 63.5548C119.983 65.1328 119.45 67.1213 119.7 69.0902C120.021 71.6087 120.486 72.7084 120.18 73.8189C119.612 75.8873 117.162 77.216 117.113 79.3608C117.075 81.0384 118.554 82.3326 119.997 83.1845C121.141 83.8602 122.376 84.4335 123.695 84.5917C125.014 84.7499 126.434 84.447 127.417 83.5512C128.684 82.3959 128.997 80.4657 128.634 78.788C128.271 77.1104 127.338 75.6205 126.416 74.1736" fill="#2F2E41"/>
<path d="M245.704 75.9048H155.128C154.52 75.9057 153.936 76.1484 153.506 76.5797C153.075 77.011 152.833 77.5958 152.832 78.2057V136.497C152.833 137.107 153.075 137.691 153.506 138.123C153.936 138.554 154.52 138.797 155.128 138.798H245.704C246.313 138.797 246.896 138.554 247.327 138.123C247.757 137.691 247.999 137.107 248 136.497V78.2057C247.999 77.5958 247.757 77.011 247.327 76.5797C246.896 76.1484 246.313 75.9057 245.704 75.9048ZM247.49 136.497C247.49 136.971 247.301 137.426 246.966 137.761C246.632 138.097 246.178 138.286 245.704 138.286H155.128C154.655 138.286 154.201 138.097 153.866 137.761C153.531 137.426 153.343 136.971 153.342 136.497V78.2057C153.343 77.7313 153.531 77.2764 153.866 76.9409C154.201 76.6054 154.655 76.4166 155.128 76.4161H245.704C246.178 76.4166 246.632 76.6054 246.966 76.9409C247.301 77.2764 247.49 77.7313 247.49 78.2057V136.497Z" fill="#3F3D56"/>
<path d="M174.462 104.921H160.174C159.599 104.92 159.047 104.691 158.641 104.284C158.234 103.876 158.006 103.324 158.005 102.748V88.4309C158.006 87.8548 158.234 87.3025 158.641 86.8951C159.047 86.4877 159.599 86.2585 160.174 86.2578H174.462C175.037 86.2585 175.588 86.4877 175.994 86.8951C176.401 87.3025 176.63 87.8548 176.63 88.4309V102.748C176.63 103.324 176.401 103.876 175.994 104.284C175.588 104.691 175.037 104.92 174.462 104.921Z" fill="#4DC6FD"/>
<path d="M240.986 120.136H159.851C159.411 120.136 158.989 119.961 158.678 119.649C158.367 119.337 158.192 118.915 158.192 118.474C158.192 118.033 158.367 117.61 158.678 117.299C158.989 116.987 159.411 116.812 159.851 116.812H240.986C241.426 116.812 241.848 116.987 242.159 117.299C242.47 117.61 242.645 118.033 242.645 118.474C242.645 118.915 242.47 119.337 242.159 119.649C241.848 119.961 241.426 120.136 240.986 120.136Z" fill="#CCCCCC"/>
<path d="M241.041 112.082H159.905C159.466 112.082 159.044 111.907 158.733 111.596C158.422 111.284 158.247 110.861 158.247 110.421C158.247 109.98 158.422 109.557 158.733 109.246C159.044 108.934 159.466 108.759 159.905 108.759H241.041C241.481 108.759 241.903 108.934 242.214 109.246C242.525 109.557 242.699 109.98 242.699 110.421C242.699 110.861 242.525 111.284 242.214 111.596C241.903 111.907 241.481 112.082 241.041 112.082Z" fill="#CCCCCC"/>
<path d="M200.983 101.086H188.991C188.552 101.086 188.13 100.911 187.819 100.6C187.508 100.288 187.333 99.8652 187.333 99.4245C187.333 98.9837 187.508 98.5611 187.819 98.2494C188.13 97.9378 188.552 97.7627 188.991 97.7627H200.983C201.423 97.7627 201.845 97.9378 202.156 98.2494C202.467 98.5611 202.642 98.9837 202.642 99.4245C202.642 99.8652 202.467 100.288 202.156 100.6C201.845 100.911 201.423 101.086 200.983 101.086Z" fill="#CCCCCC"/>
<path d="M241.041 92.9076H188.991C188.552 92.9076 188.13 92.7325 187.819 92.4209C187.508 92.1092 187.333 91.6865 187.333 91.2458C187.333 90.805 187.508 90.3824 187.819 90.0707C188.13 89.7591 188.552 89.584 188.991 89.584H241.041C241.48 89.584 241.902 89.7591 242.213 90.0707C242.524 90.3824 242.699 90.805 242.699 91.2458C242.699 91.6865 242.524 92.1092 242.213 92.4209C241.902 92.7325 241.48 92.9076 241.041 92.9076Z" fill="#CCCCCC"/>
<path d="M198.942 128.317H159.851C159.411 128.317 158.989 128.142 158.678 127.83C158.367 127.518 158.192 127.096 158.192 126.655C158.192 126.214 158.367 125.792 158.678 125.48C158.989 125.168 159.411 124.993 159.851 124.993H198.942C199.382 124.993 199.804 125.168 200.115 125.48C200.426 125.792 200.601 126.214 200.601 126.655C200.601 127.096 200.426 127.518 200.115 127.83C199.804 128.142 199.382 128.317 198.942 128.317Z" fill="#CCCCCC"/>
</g>
<defs>
<clipPath id="clip0_1124_1246">
<rect width="248" height="163.597" fill="white"/>
</clipPath>
</defs>
</svg>
