<svg width="127" height="111" viewBox="0 0 127 111" fill="none" xmlns="http://www.w3.org/2000/svg">
<g clip-path="url(#clip0_1124_975)">
<path d="M93.9511 16.4914H82.5086V5.04886C82.5086 2.26596 80.2426 0 77.4597 0H50.5364C47.7535 0 45.4875 2.26596 45.4875 5.04886V16.4914H34.0489C31.266 16.4914 29 18.7535 29 21.5403V48.4636C29 51.2465 31.266 53.5125 34.0489 53.5125H45.4914V64.955C45.4914 67.7379 47.7535 70.0039 50.5403 70.0039H77.4636C80.2465 70.0039 82.5125 67.7379 82.5125 64.955V53.5125H93.955C96.7379 53.5125 99.0039 51.2465 99.0039 48.4636V21.5403C99 18.7535 96.734 16.4914 93.9511 16.4914ZM93.613 48.1255H82.5086V27.2576H77.1255V64.613H50.8745V53.5086H71.7385V48.1255H34.3831V21.8745H45.4875V42.7385H50.8706V5.38312H77.1177V16.4875H56.2615V21.8706H93.6169V48.1255H93.613Z" fill="url(#paint0_linear_1124_975)"/>
</g>
<path d="M14.8798 91.84C15.7331 91.84 16.4931 92.02 17.1598 92.38C17.8264 92.7267 18.3531 93.2533 18.7398 93.96C19.1264 94.6667 19.3198 95.5267 19.3198 96.54V103H17.5198V96.8C17.5198 95.7067 17.2464 94.8733 16.6998 94.3C16.1664 93.7133 15.4398 93.42 14.5198 93.42C13.5731 93.42 12.8198 93.7267 12.2598 94.34C11.6998 94.94 11.4198 95.8133 11.4198 96.96V103H9.61977V96.8C9.61977 95.7067 9.34643 94.8733 8.79977 94.3C8.26643 93.7133 7.53977 93.42 6.61977 93.42C5.6731 93.42 4.91977 93.7267 4.35977 94.34C3.79977 94.94 3.51977 95.8133 3.51977 96.96V103H1.69977V92.04H3.51977V93.62C3.87977 93.0467 4.35977 92.6067 4.95977 92.3C5.5731 91.9933 6.24643 91.84 6.97977 91.84C7.89977 91.84 8.7131 92.0467 9.41977 92.46C10.1264 92.8733 10.6531 93.48 10.9998 94.28C11.3064 93.5067 11.8131 92.9067 12.5198 92.48C13.2264 92.0533 14.0131 91.84 14.8798 91.84ZM31.4452 92.04L24.8452 108.16H22.9652L25.1252 102.88L20.7052 92.04H22.7252L26.1652 100.92L29.5652 92.04H31.4452ZM38.4148 91.84C39.2414 91.84 39.9881 92.02 40.6548 92.38C41.3214 92.7267 41.8414 93.2533 42.2148 93.96C42.6014 94.6667 42.7948 95.5267 42.7948 96.54V103H40.9948V96.8C40.9948 95.7067 40.7214 94.8733 40.1748 94.3C39.6281 93.7133 38.8814 93.42 37.9348 93.42C36.9748 93.42 36.2081 93.72 35.6348 94.32C35.0748 94.92 34.7948 95.7933 34.7948 96.94V103H32.9748V88.2H34.7948V93.6C35.1548 93.04 35.6481 92.6067 36.2748 92.3C36.9148 91.9933 37.6281 91.84 38.4148 91.84ZM55.4677 97.1C55.4677 97.4467 55.4477 97.8133 55.4077 98.2H46.6477C46.7144 99.28 47.0811 100.127 47.7477 100.74C48.4277 101.34 49.2477 101.64 50.2077 101.64C50.9944 101.64 51.6477 101.46 52.1677 101.1C52.7011 100.727 53.0744 100.233 53.2877 99.62H55.2477C54.9544 100.673 54.3677 101.533 53.4877 102.2C52.6077 102.853 51.5144 103.18 50.2077 103.18C49.1677 103.18 48.2344 102.947 47.4077 102.48C46.5944 102.013 45.9544 101.353 45.4877 100.5C45.0211 99.6333 44.7877 98.6333 44.7877 97.5C44.7877 96.3667 45.0144 95.3733 45.4677 94.52C45.9211 93.6667 46.5544 93.0133 47.3677 92.56C48.1944 92.0933 49.1411 91.86 50.2077 91.86C51.2477 91.86 52.1677 92.0867 52.9677 92.54C53.7677 92.9933 54.3811 93.62 54.8077 94.42C55.2477 95.2067 55.4677 96.1 55.4677 97.1ZM53.5877 96.72C53.5877 96.0267 53.4344 95.4333 53.1277 94.94C52.8211 94.4333 52.4011 94.0533 51.8677 93.8C51.3477 93.5333 50.7677 93.4 50.1277 93.4C49.2077 93.4 48.4211 93.6933 47.7677 94.28C47.1277 94.8667 46.7611 95.68 46.6677 96.72H53.5877ZM56.8901 97.48C56.8901 96.36 57.1167 95.38 57.5701 94.54C58.0234 93.6867 58.6434 93.0267 59.4301 92.56C60.2301 92.0933 61.1167 91.86 62.0901 91.86C63.0501 91.86 63.8834 92.0667 64.5901 92.48C65.2967 92.8933 65.8234 93.4133 66.1701 94.04V92.04H68.0101V103H66.1701V100.96C65.8101 101.6 65.2701 102.133 64.5501 102.56C63.8434 102.973 63.0167 103.18 62.0701 103.18C61.0967 103.18 60.2167 102.94 59.4301 102.46C58.6434 101.98 58.0234 101.307 57.5701 100.44C57.1167 99.5733 56.8901 98.5867 56.8901 97.48ZM66.1701 97.5C66.1701 96.6733 66.0034 95.9533 65.6701 95.34C65.3367 94.7267 64.8834 94.26 64.3101 93.94C63.7501 93.6067 63.1301 93.44 62.4501 93.44C61.7701 93.44 61.1501 93.6 60.5901 93.92C60.0301 94.24 59.5834 94.7067 59.2501 95.32C58.9167 95.9333 58.7501 96.6533 58.7501 97.48C58.7501 98.32 58.9167 99.0533 59.2501 99.68C59.5834 100.293 60.0301 100.767 60.5901 101.1C61.1501 101.42 61.7701 101.58 62.4501 101.58C63.1301 101.58 63.7501 101.42 64.3101 101.1C64.8834 100.767 65.3367 100.293 65.6701 99.68C66.0034 99.0533 66.1701 98.3267 66.1701 97.5ZM72.6057 88.2V103H70.7857V88.2H72.6057ZM77.6276 93.54V100C77.6276 100.533 77.7409 100.913 77.9676 101.14C78.1942 101.353 78.5876 101.46 79.1476 101.46H80.4876V103H78.8476C77.8342 103 77.0742 102.767 76.5676 102.3C76.0609 101.833 75.8076 101.067 75.8076 100V93.54H74.3876V92.04H75.8076V89.28H77.6276V92.04H80.4876V93.54H77.6276ZM87.8327 91.84C88.6594 91.84 89.4061 92.02 90.0727 92.38C90.7394 92.7267 91.2594 93.2533 91.6327 93.96C92.0194 94.6667 92.2127 95.5267 92.2127 96.54V103H90.4127V96.8C90.4127 95.7067 90.1394 94.8733 89.5927 94.3C89.0461 93.7133 88.2994 93.42 87.3527 93.42C86.3927 93.42 85.6261 93.72 85.0527 94.32C84.4927 94.92 84.2127 95.7933 84.2127 96.94V103H82.3927V88.2H84.2127V93.6C84.5727 93.04 85.0661 92.6067 85.6927 92.3C86.3327 91.9933 87.0461 91.84 87.8327 91.84ZM94.2057 97.5C94.2057 96.3667 94.4324 95.38 94.8857 94.54C95.339 93.6867 95.9657 93.0267 96.7657 92.56C97.579 92.0933 98.5057 91.86 99.5457 91.86C100.892 91.86 101.999 92.1867 102.866 92.84C103.746 93.4933 104.326 94.4 104.606 95.56H102.646C102.459 94.8933 102.092 94.3667 101.546 93.98C101.012 93.5933 100.346 93.4 99.5457 93.4C98.5057 93.4 97.6657 93.76 97.0257 94.48C96.3857 95.1867 96.0657 96.1933 96.0657 97.5C96.0657 98.82 96.3857 99.84 97.0257 100.56C97.6657 101.28 98.5057 101.64 99.5457 101.64C100.346 101.64 101.012 101.453 101.546 101.08C102.079 100.707 102.446 100.173 102.646 99.48H104.606C104.312 100.6 103.726 101.5 102.846 102.18C101.966 102.847 100.866 103.18 99.5457 103.18C98.5057 103.18 97.579 102.947 96.7657 102.48C95.9657 102.013 95.339 101.353 94.8857 100.5C94.4324 99.6467 94.2057 98.6467 94.2057 97.5ZM116.734 97.1C116.734 97.4467 116.714 97.8133 116.674 98.2H107.914C107.981 99.28 108.347 100.127 109.014 100.74C109.694 101.34 110.514 101.64 111.474 101.64C112.261 101.64 112.914 101.46 113.434 101.1C113.967 100.727 114.341 100.233 114.554 99.62H116.514C116.221 100.673 115.634 101.533 114.754 102.2C113.874 102.853 112.781 103.18 111.474 103.18C110.434 103.18 109.501 102.947 108.674 102.48C107.861 102.013 107.221 101.353 106.754 100.5C106.287 99.6333 106.054 98.6333 106.054 97.5C106.054 96.3667 106.281 95.3733 106.734 94.52C107.187 93.6667 107.821 93.0133 108.634 92.56C109.461 92.0933 110.407 91.86 111.474 91.86C112.514 91.86 113.434 92.0867 114.234 92.54C115.034 92.9933 115.647 93.62 116.074 94.42C116.514 95.2067 116.734 96.1 116.734 97.1ZM114.854 96.72C114.854 96.0267 114.701 95.4333 114.394 94.94C114.087 94.4333 113.667 94.0533 113.134 93.8C112.614 93.5333 112.034 93.4 111.394 93.4C110.474 93.4 109.687 93.6933 109.034 94.28C108.394 94.8667 108.027 95.68 107.934 96.72H114.854ZM120.656 88.2V103H118.836V88.2H120.656ZM125.278 88.2V103H123.458V88.2H125.278Z" fill="#222222"/>
<defs>
<linearGradient id="paint0_linear_1124_975" x1="29" y1="3.58994" x2="105.397" y2="18.4545" gradientUnits="userSpaceOnUse">
<stop stop-color="#4DC6FD"/>
<stop offset="1" stop-color="#00CCCB"/>
</linearGradient>
<clipPath id="clip0_1124_975">
<rect width="70" height="70" fill="white" transform="translate(29)"/>
</clipPath>
</defs>
</svg>
